<?xml version="1.0" standalone="no"?>
<!DOCTYPE svg PUBLIC "-//W3C//DTD SVG 20010904//EN"
 "http://www.w3.org/TR/2001/REC-SVG-20010904/DTD/svg10.dtd">
<svg version="1.0" xmlns="http://www.w3.org/2000/svg"
 width="540.000000pt" height="540.000000pt" viewBox="0 0 540.000000 540.000000"
 preserveAspectRatio="xMidYMid meet">

<g transform="translate(0.000000,540.000000) scale(0.100000,-0.100000)"
fill="#000000" stroke="none">
<path d="M4535 4681 l-70 -6 2 -110 c3 -217 42 -1531 58 -1955 12 -344 28
-596 37 -607 6 -8 45 -13 101 -15 l92 -3 -1 -180 c-2 -210 -24 -345 -93 -557
-73 -222 -151 -349 -276 -450 -74 -60 -148 -88 -246 -95 -140 -10 -280 29
-414 115 -76 49 -214 177 -246 229 -23 37 -39 42 -46 14 -3 -11 -12 -22 -20
-26 -24 -9 -29 4 -7 19 10 8 17 17 14 19 -8 8 -38 -17 -42 -34 -5 -23 145
-182 237 -252 304 -229 658 -233 883 -9 105 105 171 220 238 414 73 212 103
378 111 611 l6 177 74 0 c59 0 75 3 80 17 6 17 0 244 -42 1518 -13 402 -27
830 -31 953 l-7 222 -161 -2 c-89 -1 -192 -4 -231 -7z m109 -106 c-8 -47 11
-46 31 1 12 30 19 35 42 32 26 -3 28 -6 28 -45 0 -24 -4 -43 -10 -43 -5 0 -10
12 -10 27 0 14 -6 28 -12 30 -8 3 -13 -4 -13 -15 0 -29 -32 -64 -52 -57 -22 9
-37 55 -27 83 14 36 31 27 23 -13z m90 -100 c26 -27 29 -56 9 -84 -11 -14 -30
-27 -42 -29 -18 -3 -21 2 -21 30 0 39 -14 66 -24 49 -4 -6 -4 -20 -1 -31 9
-28 -3 -44 -21 -29 -19 15 -18 59 2 87 18 26 74 30 98 7z m0 -146 c26 -20 35
-61 18 -85 -8 -13 -46 -34 -61 -34 -6 0 -11 22 -11 51 0 44 -2 50 -15 39 -9
-8 -12 -22 -8 -41 7 -36 -14 -40 -27 -4 -17 44 16 94 61 95 9 0 28 -9 43 -21z
m5 -147 c26 -20 31 -76 10 -97 -8 -8 -25 -16 -38 -17 -20 -2 -25 2 -26 22 -3
62 -5 71 -16 64 -6 -3 -9 -19 -5 -34 6 -33 -2 -44 -21 -29 -20 18 -16 66 9 89
27 25 59 26 87 2z m17 -157 c10 -15 14 -37 12 -55 -3 -20 0 -30 9 -30 7 0 13
-7 13 -15 0 -12 -15 -15 -75 -15 -71 0 -75 1 -74 23 0 12 -2 31 -6 42 -4 14 1
30 15 48 29 37 82 38 106 2z m-84 -210 c-5 -45 14 -47 26 -2 6 24 14 33 34 35
33 4 52 -27 43 -68 -9 -40 -33 -29 -27 12 6 41 -19 34 -30 -9 -10 -38 -35 -49
-59 -27 -27 25 -23 94 5 94 8 0 11 -12 8 -35z m118 -96 c0 -7 -8 -18 -17 -25
-16 -12 -16 -15 -3 -23 22 -15 2 -29 -45 -33 -32 -2 -40 -7 -40 -23 0 -17 8
-20 48 -23 61 -4 65 -28 6 -34 -59 -5 -83 10 -87 54 -4 41 13 56 67 60 17 1
31 6 31 10 0 15 -52 20 -76 8 -29 -16 -34 -12 -23 18 7 20 15 22 74 22 42 0
65 -4 65 -11z m-9 -216 c5 -13 6 -35 3 -47 -4 -16 0 -25 10 -29 39 -15 11 -27
-63 -27 l-79 0 2 53 c1 28 5 58 10 65 24 38 100 28 117 -15z m-11 -138 c0 -12
-13 -15 -60 -15 -55 0 -70 6 -53 23 3 4 30 7 60 7 40 0 53 -4 53 -15z m41 2
c-1 -12 -15 -9 -19 4 -3 6 1 10 8 8 6 -3 11 -8 11 -12z m-43 -43 c16 -11 22
-25 22 -54 0 -29 -6 -43 -22 -54 -48 -34 -108 -4 -108 54 0 58 60 88 108 54z
m75 -214 c33 0 17 -44 -18 -50 l-30 -6 33 -7 c23 -5 32 -12 32 -26 0 -11 -5
-23 -11 -27 -8 -4 -9 0 -4 15 9 29 -7 26 -21 -4 -10 -21 -9 -24 10 -27 15 -2
21 -10 21 -28 0 -22 -5 -25 -38 -28 -44 -4 -59 18 -33 47 15 16 15 19 1 24
-18 8 -20 43 -2 51 10 5 10 7 0 12 -14 6 -18 46 -6 58 4 4 17 5 28 2 11 -3 28
-6 38 -6z m-175 -21 c12 -5 22 -12 22 -17 0 -12 -78 -47 -87 -39 -3 4 2 9 11
13 20 8 21 44 1 44 -8 0 -15 5 -15 11 0 10 16 7 68 -12z m-21 -84 c0 -8 -4
-15 -9 -15 -4 0 -8 7 -8 15 0 8 4 15 8 15 5 0 9 -7 9 -15z m49 -40 c9 -22 -14
-45 -45 -45 -36 0 -53 18 -40 42 12 23 77 25 85 3z m-71 -75 c-5 -14 -2 -20 9
-20 9 0 16 5 16 11 0 8 4 9 13 0 18 -14 30 -2 16 16 -9 9 -8 13 0 13 15 0 26
-29 15 -40 -5 -4 -24 -11 -42 -15 -34 -7 -50 9 -38 40 8 22 18 18 11 -5z m188
5 c4 -8 2 -17 -3 -20 -6 -4 -10 3 -10 14 0 25 6 27 13 6z m46 -39 c15 -17 5
-43 -19 -49 -39 -10 -89 38 -52 51 7 2 10 -2 6 -11 -3 -8 -1 -18 5 -22 6 -3
11 2 11 13 0 33 28 44 49 18z m-64 -75 c-8 -25 11 -37 23 -15 6 11 11 13 16 5
13 -20 28 -12 21 12 -6 17 -4 19 5 11 24 -23 7 -48 -33 -51 -39 -4 -55 12 -43
42 8 22 18 18 11 -4z m70 -81 c0 -22 -4 -25 -40 -25 -31 0 -41 4 -43 19 -5 24
15 37 53 34 25 -3 30 -7 30 -28z m10 -50 c4 -6 -7 -15 -24 -21 -39 -14 -39
-25 -1 -32 47 -10 35 -27 -17 -26 -41 1 -44 2 -18 8 l30 7 -27 7 c-34 9 -36
24 -5 37 21 8 21 9 -6 9 -16 1 -26 5 -22 11 8 13 82 13 90 0z m-49 -309 c0
-33 -5 -62 -13 -69 -19 -19 -16 -46 7 -73 10 -13 19 -20 20 -15 0 15 30 -16
30 -32 0 -12 -4 -12 -21 4 -20 18 -20 18 -14 -8 4 -15 8 -41 9 -57 3 -41 13
-49 25 -20 7 16 10 18 10 7 2 -36 -11 -48 -49 -48 l-38 0 -7 66 c-4 36 -12 67
-18 70 -15 5 -21 114 -7 114 20 0 9 27 -26 62 -19 21 -33 41 -30 46 3 5 31 9
64 9 l58 0 0 -56z m-76 -42 c0 -4 -9 -9 -20 -12 -13 -3 -20 0 -20 8 0 8 9 13
20 12 11 -1 20 -4 20 -8z m-15 -133 c0 -11 -8 -20 -17 -22 -13 -2 -18 5 -18
23 0 18 5 24 18 21 9 -2 17 -12 17 -22z m13 -43 c-16 -38 -25 -47 -23 -24 1
17 22 51 31 51 2 0 -2 -12 -8 -27z m-27 -70 c6 -6 6 -14 1 -17 -15 -9 -22 5
-21 43 1 28 3 30 6 11 3 -14 9 -30 14 -37z m56 -5 c-2 -13 -4 -5 -4 17 -1 22
1 32 4 23 2 -10 2 -28 0 -40z"/>
<path d="M4700 4425 c0 -32 2 -36 15 -25 8 7 15 18 15 25 0 7 -7 18 -15 25
-13 11 -15 7 -15 -25z"/>
<path d="M4710 4280 c0 -18 4 -29 10 -25 6 3 10 15 10 25 0 10 -4 22 -10 25
-6 4 -10 -7 -10 -25z"/>
<path d="M4710 4129 c0 -26 3 -29 14 -20 8 7 12 21 9 31 -8 31 -23 23 -23 -11z"/>
<path d="M4669 3998 c-10 -18 -8 -24 11 -40 38 -31 83 15 48 50 -19 19 -46 14
-59 -10z"/>
<path d="M4689 3494 c-17 -21 0 -49 31 -49 31 0 48 28 31 49 -8 9 -21 16 -31
16 -10 0 -23 -7 -31 -16z"/>
<path d="M4702 3298 c-18 -18 -15 -56 7 -63 43 -13 74 30 42 59 -21 19 -33 20
-49 4z"/>
<path d="M4780 3084 c0 -9 5 -14 12 -12 18 6 21 28 4 28 -9 0 -16 -7 -16 -16z"/>
<path d="M4825 3090 c-3 -5 1 -10 9 -10 9 0 16 5 16 10 0 6 -4 10 -9 10 -6 0
-13 -4 -16 -10z"/>
<path d="M4785 3021 c-7 -12 12 -24 25 -16 11 7 4 25 -10 25 -5 0 -11 -4 -15
-9z"/>
<path d="M4785 2951 c-3 -5 0 -13 5 -16 15 -9 60 3 60 15 0 13 -57 13 -65 1z"/>
<path d="M4640 3070 c0 -5 5 -10 10 -10 6 0 10 5 10 10 0 6 -4 10 -10 10 -5 0
-10 -4 -10 -10z"/>
<path d="M4627 2964 c-15 -15 -6 -24 24 -24 20 0 29 4 27 13 -5 14 -40 21 -51
11z"/>
<path d="M4822 2838 c6 -18 28 -21 28 -4 0 9 -7 16 -16 16 -9 0 -14 -5 -12
-12z"/>
<path d="M4795 2700 c-8 -12 17 -23 41 -18 10 1 19 9 22 16 5 15 -54 17 -63 2z"/>
<path d="M4790 2300 c0 -5 5 -10 11 -10 5 0 7 5 4 10 -3 6 -8 10 -11 10 -2 0
-4 -4 -4 -10z"/>
<path d="M4761 2254 c0 -11 3 -14 6 -6 3 7 2 16 -1 19 -3 4 -6 -2 -5 -13z"/>
<path d="M442 4432 c-18 -12 -20 -71 -32 -1167 -5 -506 -12 -1020 -15 -1142
l-6 -223 188 -2 187 -3 14 -99 c28 -216 172 -560 295 -706 211 -251 480 -334
792 -242 189 55 329 127 527 269 l77 56 -22 18 c-16 14 -17 17 -4 13 22 -8 22
5 0 21 -14 10 -25 5 -72 -33 -243 -198 -572 -326 -795 -309 -181 13 -360 122
-483 294 -110 154 -241 507 -246 662 l-2 56 365 0 365 0 7 515 c4 283 12 845
18 1249 7 500 7 737 0 746 -7 9 -132 14 -507 19 -274 3 -529 9 -568 12 -38 3
-76 1 -83 -4z m716 -900 c7 -9 11 -26 8 -36 -3 -11 0 -26 6 -33 17 -21 1 -43
-32 -43 -23 0 -35 -7 -50 -32 -11 -18 -18 -38 -16 -44 3 -6 0 -30 -5 -53 -9
-39 -1 -74 20 -91 14 -11 33 -59 27 -68 -7 -11 -46 -23 -44 -13 4 33 -3 40
-28 31 -14 -6 -31 -10 -39 -10 -19 0 -24 31 -9 60 15 30 28 80 25 98 -1 7 6
28 16 45 26 43 35 70 23 62 -11 -7 -49 32 -50 50 0 6 5 3 10 -5 5 -8 18 -16
30 -16 23 -1 27 25 8 59 -15 27 -19 49 -8 42 4 -3 14 2 21 11 16 20 68 11 87
-14z m-188 -249 c0 -5 -4 -14 -9 -21 -7 -12 -12 -12 -30 -1 -29 19 -26 29 9
29 17 0 30 -3 30 -7z"/>
<path d="M2755 2830 c-22 -4 -38 -8 -35 -9 16 -7 536 -18 558 -11 21 5 10 9
-48 13 -119 10 -431 14 -475 7z"/>
<path d="M2699 2780 c-4 -34 -5 -35 -42 -32 -24 2 -48 -3 -64 -13 -20 -13 -27
-14 -33 -5 -10 16 -94 6 -127 -15 -54 -36 -53 -19 -54 -746 l-1 -672 36 -36
c38 -38 44 -39 169 -31 l47 3 0 68 c0 59 -3 68 -20 74 -11 4 -18 11 -15 16 4
5 -2 6 -11 2 -14 -5 -16 -3 -11 11 4 10 7 20 7 22 0 13 39 1 43 -13 7 -28 10
54 9 317 l-1 245 332 -5 c183 -3 338 -3 344 -1 7 1 10 7 7 12 -3 5 0 9 6 9 8
0 11 -69 9 -247 -2 -252 -8 -293 -42 -293 -8 0 -7 4 3 11 12 8 9 9 -11 5 -15
-3 -75 -6 -134 -7 -103 -2 -106 -2 -101 -23 3 -11 9 -46 12 -76 3 -30 7 -67 9
-82 2 -16 -1 -28 -7 -28 -5 0 -8 -5 -6 -11 2 -6 23 -12 46 -13 44 -2 55 16 14
22 -26 4 -32 52 -7 52 8 0 15 7 15 15 0 8 -7 15 -15 15 -17 0 -21 55 -5 65 7
4 9 -2 4 -19 -4 -16 -2 -26 5 -26 9 0 16 41 13 71 -1 5 36 5 61 1 4 -1 -1 -12
-13 -24 -26 -29 -21 -31 23 -10 26 12 36 24 37 40 0 13 6 22 16 22 8 0 12 -4
9 -10 -4 -6 9 -10 30 -10 29 0 36 -3 31 -15 -3 -9 0 -15 10 -15 12 0 15 -10
13 -43 -2 -31 4 -54 20 -80 12 -20 20 -41 16 -47 -9 -14 110 -13 138 1 41 22
67 52 67 80 l0 28 -82 4 -83 3 81 2 82 2 4 43 c3 23 6 218 7 432 1 215 4 465
7 558 l5 167 -81 0 -80 0 0 -127 c-1 -146 -10 -336 -17 -343 -3 -3 -3 63 1
145 3 83 6 192 6 243 l0 92 84 0 84 0 0 52 c1 45 -3 55 -33 85 -27 27 -41 33
-74 33 -23 0 -41 -4 -41 -10 0 -14 -27 -12 -34 3 -5 10 -7 10 -12 0 -7 -15
-34 -17 -34 -3 0 6 -13 10 -29 10 -26 0 -41 -14 -41 -40 0 -5 54 -10 120 -12
112 -3 121 -5 142 -28 23 -24 23 -24 1 -6 -17 14 -41 19 -95 21 -274 8 -284 8
-231 14 44 5 51 8 42 21 -8 11 -12 12 -16 3 -3 -10 -10 -10 -25 -2 -16 9 -19
19 -16 50 l4 39 -76 0 c-41 1 -142 3 -223 6 l-148 6 2 -46 c3 -50 -2 -61 -26
-53 -11 5 -15 21 -15 57 0 61 -19 68 -22 8 l-1 -43 -7 45 -6 45 -5 -35z m211
-30 c0 -5 -4 -10 -10 -10 -5 0 -10 5 -10 10 0 6 5 10 10 10 6 0 10 -4 10 -10z
m-280 -20 c0 -5 -4 -10 -10 -10 -5 0 -10 5 -10 10 0 6 5 10 10 10 6 0 10 -4
10 -10z m-150 -50 c0 -5 -4 -10 -9 -10 -6 0 -13 5 -16 10 -3 6 1 10 9 10 9 0
16 -4 16 -10z m643 -7 c-7 -2 -21 -2 -30 0 -10 3 -4 5 12 5 17 0 24 -2 18 -5z
m44 1 c-3 -3 -12 -4 -19 -1 -8 3 -5 6 6 6 11 1 17 -2 13 -5z m-699 -111 c-16
-2 -40 -2 -55 0 -16 2 -3 4 27 4 30 0 43 -2 28 -4z m77 -544 l0 -544 -2 539
c-3 416 -6 542 -16 549 -9 6 -8 7 3 4 13 -3 15 -73 15 -548z m-27 459 l-3 -53
-57 -3 -58 -3 0 56 0 55 61 0 60 0 -3 -52z m532 37 c49 -25 76 -104 50 -145
-8 -12 -10 -12 -11 5 0 15 -2 16 -6 5 -8 -19 -51 -60 -64 -60 -6 0 -7 -5 -3
-12 5 -8 2 -9 -10 -5 -10 4 -24 7 -31 7 -8 0 -30 16 -50 37 -36 37 -43 37 -24
0 10 -21 9 -21 -10 2 -43 48 -18 147 43 171 33 14 84 11 116 -5z m530 -45 l0
-60 -60 2 -60 3 0 52 0 52 53 4 c28 2 55 4 60 5 4 1 7 -25 7 -58z m-1092 -126
c28 -20 30 -69 3 -84 -45 -23 -91 -1 -91 45 0 23 32 55 55 55 6 0 21 -7 33
-16z m602 2 c0 -2 -8 -10 -17 -17 -16 -13 -17 -12 -4 4 13 16 21 21 21 13z
m470 -13 c38 -33 13 -93 -40 -93 -58 0 -80 72 -30 97 33 17 46 16 70 -4z
m-364 -99 c-4 -14 -9 -24 -12 -21 -3 2 -2 17 2 31 3 15 9 25 11 22 3 -3 2 -17
-1 -32z m134 -64 l0 -100 -72 2 -73 2 68 3 67 4 0 94 c0 52 2 95 5 95 3 0 5
-45 5 -100z m-702 50 c-14 -22 -24 -19 -15 5 4 8 11 15 17 15 6 0 6 -7 -2 -20z
m130 -11 c-3 -8 -7 -3 -11 10 -4 17 -3 21 5 13 5 -5 8 -16 6 -23z m540 19 c-7
-20 -68 -23 -68 -4 0 12 10 16 36 16 24 0 34 -4 32 -12z m-213 -18 c3 -5 15
-10 26 -10 10 0 19 -4 19 -10 0 -5 11 -10 25 -10 24 0 26 -3 21 -41 -2 -22 -7
-43 -10 -46 -9 -9 -54 6 -59 20 -2 6 -3 -1 -1 -18 3 -25 2 -27 -7 -12 -6 9 -9
25 -8 35 3 29 0 38 -21 60 -17 18 -32 22 -80 22 -73 0 -100 -18 -94 -64 2 -23
1 -27 -6 -16 -8 13 -10 12 -10 -3 0 -15 -7 -18 -37 -15 -37 3 -38 4 -41 46 -3
41 -2 42 27 42 17 0 31 4 31 9 0 5 9 7 20 4 11 -3 20 0 20 6 0 14 176 15 185
1z m-415 -15 c0 -8 -7 -15 -15 -15 -9 0 -12 6 -9 15 4 8 10 15 15 15 5 0 9 -7
9 -15z m60 0 c0 -8 -4 -15 -10 -15 -5 0 -10 7 -10 15 0 8 5 15 10 15 6 0 10
-7 10 -15z m-110 -20 c0 -8 -4 -15 -10 -15 -5 0 -7 7 -4 15 4 8 8 15 10 15 2
0 4 -7 4 -15z m690 0 c0 -8 -7 -15 -15 -15 -9 0 -12 6 -9 15 4 8 10 15 15 15
5 0 9 -7 9 -15z m-812 -7 c13 -13 16 -57 4 -73 -11 -15 -71 -18 -88 -5 -20 17
-18 67 4 79 23 14 65 14 80 -1z m282 -4 c0 -2 -7 -4 -15 -4 -8 0 -15 4 -15 10
0 5 7 7 15 4 8 -4 15 -8 15 -10z m467 0 c-3 -3 -12 -4 -19 -1 -8 3 -5 6 6 6
11 1 17 -2 13 -5z m248 -14 c-18 -20 -18 -21 4 -41 12 -11 29 -18 37 -15 19 7
18 46 -1 46 -8 0 -15 7 -15 15 0 16 18 20 36 7 19 -12 25 -47 12 -65 -15 -20
-67 -31 -87 -18 -28 19 -16 91 16 91 14 0 14 -2 -2 -20z m-910 -34 c0 -19 -3
-32 -7 -29 -14 8 -8 63 6 63 1 0 1 -15 1 -34z m46 24 c1 8 5 2 9 -15 6 -24 8
-26 9 -7 1 18 7 22 34 23 17 0 42 2 55 3 22 3 27 -9 16 -38 -5 -12 -21 -16
-75 -16 l-69 0 0 33 c0 24 3 28 10 17 9 -13 10 -13 11 0z m609 -30 c0 -5 -7
-7 -15 -4 -8 4 -15 8 -15 10 0 2 7 4 15 4 8 0 15 -4 15 -10z m70 0 c0 -5 -7
-10 -15 -10 -8 0 -15 5 -15 10 0 6 7 10 15 10 8 0 15 -4 15 -10z m-309 -73
l84 -3 -94 0 c-91 1 -94 2 -102 26 l-9 25 19 -22 c16 -19 31 -23 102 -26z
m-338 26 c-13 -2 -33 -2 -45 0 -13 2 -3 4 22 4 25 0 35 -2 23 -4z m54 1 c-3
-3 -12 -4 -19 -1 -8 3 -5 6 6 6 11 1 17 -2 13 -5z m157 -9 c3 -9 0 -15 -9 -15
-8 0 -15 7 -15 15 0 8 4 15 9 15 5 0 11 -7 15 -15z m252 -12 c-10 -10 -19 5
-10 18 6 11 8 11 12 0 2 -7 1 -15 -2 -18z m-516 -7 c0 -2 -7 -6 -15 -10 -8 -3
-15 -1 -15 4 0 6 7 10 15 10 8 0 15 -2 15 -4z m760 -26 c0 -5 -2 -10 -4 -10
-3 0 -8 5 -11 10 -3 6 -1 10 4 10 6 0 11 -4 11 -10z m-876 -16 c20 -20 21 -58
1 -74 -34 -28 -95 -7 -95 33 0 48 61 74 94 41z m1073 -24 c19 -37 -3 -65 -53
-66 -42 -1 -54 9 -54 43 0 55 82 73 107 23z m-140 -62 c-2 -13 -4 -5 -4 17 -1
22 1 32 4 23 2 -10 2 -28 0 -40z m-813 25 c9 -23 -8 -37 -24 -18 -7 8 -9 15
-4 15 5 0 2 5 -6 10 -12 8 -11 10 6 10 12 0 25 -8 28 -17z m753 -35 c-3 -8 -6
-5 -6 6 -1 11 2 17 5 13 3 -3 4 -12 1 -19z m-776 -47 c8 12 11 11 19 -1 12
-18 8 -32 -10 -38 -7 -3 -10 0 -6 7 4 6 1 11 -8 11 -9 0 -16 8 -15 18 0 12 2
13 6 3 5 -11 7 -11 14 0z m809 -11 c0 -11 -6 -20 -14 -20 -8 0 -21 -3 -30 -6
-12 -5 -16 0 -16 20 0 22 4 26 30 26 23 0 30 -4 30 -20z m-902 -22 c35 -29 -8
-93 -56 -83 -35 6 -42 14 -42 45 0 50 55 71 98 38z m929 -140 c-2 -29 -3 -6
-3 52 0 58 1 81 3 53 2 -29 2 -77 0 -105z m127 136 c24 -23 20 -61 -9 -80 -14
-9 -32 -14 -40 -10 -8 3 -18 5 -21 5 -11 -1 -24 25 -24 48 0 24 34 53 62 53 9
0 24 -7 32 -16z m-941 -78 c-4 -6 -8 -6 -10 1 -3 7 -11 9 -19 6 -8 -3 -14 0
-14 7 0 6 4 9 9 5 5 -3 13 0 17 6 5 8 9 7 15 -2 4 -7 5 -18 2 -23z m787 19 c0
-9 -9 -15 -24 -15 -13 0 -27 -6 -29 -12 -3 -7 -6 -1 -6 15 -1 24 3 27 29 27
20 0 30 -5 30 -15z m-785 -105 c-3 -6 -10 -10 -16 -10 -10 0 -12 33 -2 44 9 9
26 -22 18 -34z m791 29 c8 -14 -4 -25 -38 -33 -25 -6 -28 -4 -28 19 0 21 5 25
29 25 17 0 33 -5 37 -11z m-902 -51 c12 -34 -14 -68 -54 -68 -33 0 -50 17 -50
50 0 36 19 51 60 48 27 -2 37 -9 44 -30z m1054 10 c17 -15 15 -54 -5 -73 -20
-20 -72 -13 -90 12 -18 23 -16 30 12 59 26 25 52 26 83 2z m-131 -185 c-2 -32
-3 -6 -3 57 0 63 1 89 3 58 2 -32 2 -84 0 -115z m-812 129 c3 -9 1 -20 -5 -26
-7 -7 -10 -6 -10 2 0 7 -7 12 -15 12 -8 0 -12 6 -9 13 7 18 32 17 39 -1z m783
1 c-2 -10 -12 -18 -23 -18 -11 1 -23 -4 -27 -10 -4 -5 -8 2 -8 18 0 24 4 27
31 27 24 0 30 -4 27 -17z m-31 -100 c-3 -10 -5 -2 -5 17 0 19 2 27 5 18 2 -10
2 -26 0 -35z m-751 16 c3 -6 2 -15 -4 -21 -6 -6 -11 -2 -15 11 -5 22 7 29 19
10z m-31 -9 c3 -5 1 -10 -4 -10 -6 0 -11 5 -11 10 0 6 2 10 4 10 3 0 8 -4 11
-10z m-93 -17 c36 -32 11 -83 -41 -83 -34 0 -51 17 -51 52 0 44 56 64 92 31z
m1070 -18 c27 -60 -40 -101 -90 -55 -26 25 -27 29 -6 58 22 33 80 31 96 -3z
m-1015 -42 c-3 -10 -5 -2 -5 17 0 19 2 27 5 18 2 -10 2 -26 0 -35z m820 -15
c-2 -13 -4 -3 -4 22 0 25 2 35 4 23 2 -13 2 -33 0 -45z m-832 -48 c-3 -5 -32
-9 -63 -8 l-57 1 60 7 c33 4 61 7 63 8 2 1 0 -2 -3 -8z m69 -15 c8 -9 13 -22
10 -30 -7 -18 -12 -19 -29 -1 -11 10 -11 16 -2 26 9 10 9 11 0 6 -7 -4 -13 -2
-13 3 0 16 16 13 34 -4z"/>
<path d="M2415 2510 c-3 -6 1 -7 9 -4 18 7 21 14 7 14 -6 0 -13 -4 -16 -10z"/>
<path d="M2443 2500 c-26 -11 -30 -32 -8 -50 10 -9 15 -9 15 -1 0 6 6 11 13
11 6 0 18 4 26 9 12 8 12 12 2 25 -15 18 -17 18 -48 6z"/>
<path d="M3503 2503 c-19 -7 -16 -30 7 -53 17 -17 21 -18 35 -4 8 9 15 18 15
22 -1 13 -45 39 -57 35z"/>
<path d="M3555 2500 c3 -5 8 -10 11 -10 2 0 4 5 4 10 0 6 -5 10 -11 10 -5 0
-7 -4 -4 -10z"/>
<path d="M2442 2329 c-33 -13 -27 -54 8 -54 32 -1 52 23 39 47 -11 20 -14 21
-47 7z"/>
<path d="M3490 2315 c-11 -13 -9 -19 8 -35 27 -25 39 -25 52 1 10 17 8 21 -9
26 -12 3 -21 9 -21 14 0 14 -16 11 -30 -6z"/>
<path d="M2860 2166 c0 -9 5 -16 10 -16 6 0 10 4 10 9 0 6 -4 13 -10 16 -5 3
-10 -1 -10 -9z"/>
<path d="M3110 2155 c0 -8 5 -15 10 -15 6 0 10 7 10 15 0 8 -4 15 -10 15 -5 0
-10 -7 -10 -15z"/>
<path d="M2443 2160 c-37 -15 -24 -70 16 -70 8 0 11 3 8 7 -4 3 1 11 9 18 11
8 14 19 10 33 -8 24 -11 25 -43 12z"/>
<path d="M2433 1984 c-18 -8 -16 -39 2 -54 10 -9 15 -9 15 -1 0 6 9 11 21 11
15 0 20 5 17 23 -3 22 -29 32 -55 21z"/>
<path d="M3485 1970 c-8 -26 33 -64 53 -48 17 14 15 25 -8 48 -25 25 -37 25
-45 0z"/>
<path d="M2438 1813 c-19 -5 -25 -47 -8 -58 5 -3 19 0 32 7 13 7 25 14 26 15
2 1 1 11 -3 22 -6 21 -14 23 -47 14z"/>
<path d="M3496 1805 c-21 -16 -15 -45 9 -45 8 0 15 -5 15 -11 0 -8 5 -8 15 1
19 16 19 36 -1 44 -8 3 -12 10 -9 16 9 14 -7 12 -29 -5z"/>
<path d="M2424 1624 c-4 -17 -1 -31 10 -42 12 -12 16 -13 16 -3 0 8 6 11 16 7
8 -3 12 -2 9 4 -3 6 -1 10 4 10 6 0 10 11 9 25 -2 20 -8 25 -30 25 -21 0 -29
-6 -34 -26z"/>
<path d="M3493 1643 c-19 -7 -15 -36 7 -56 25 -21 36 -22 44 -1 10 25 7 31
-15 37 -12 3 -18 10 -14 16 6 11 -1 13 -22 4z"/>
<path d="M2426 1464 c-10 -27 -7 -52 9 -58 8 -3 15 -1 15 4 0 6 5 10 11 10 5
0 7 -5 3 -12 -4 -7 -3 -8 5 -4 6 4 9 11 6 16 -3 4 0 10 6 12 7 2 9 13 5 26 -9
26 -51 30 -60 6z"/>
<path d="M3484 1446 c-3 -8 4 -24 17 -37 21 -21 23 -21 36 -4 19 26 17 34 -13
45 -33 13 -34 13 -40 -4z"/>
<path d="M2943 1903 c-42 -8 -39 -63 3 -63 21 0 24 5 24 35 0 19 -1 34 -2 34
-2 -1 -13 -4 -25 -6z m13 -24 c10 -17 -13 -36 -27 -22 -12 12 -4 33 11 33 5 0
12 -5 16 -11z"/>
<path d="M3148 1896 c-16 -8 -28 -12 -29 -8 0 4 -4 -3 -9 -15 -5 -13 -14 -23
-19 -23 -5 0 -12 10 -14 23 l-4 22 -2 -23 c-1 -26 27 -42 40 -21 6 11 11 11
21 1 6 -6 20 -12 30 -12 14 0 18 8 18 35 0 19 -1 35 -2 35 -2 0 -15 -7 -30
-14z m17 -26 c0 -7 -6 -15 -12 -17 -8 -3 -13 4 -13 17 0 13 5 20 13 18 6 -3
12 -11 12 -18z"/>
<path d="M2684 1888 c-4 -6 1 -17 10 -24 16 -12 16 -13 -1 -17 -14 -4 -14 -5
5 -6 26 -1 30 24 5 33 -15 6 -15 8 -3 16 9 6 10 10 3 10 -6 0 -15 -5 -19 -12z"/>
<path d="M2734 1886 c-9 -23 3 -46 23 -45 16 0 16 1 -2 9 -19 8 -19 9 3 9 17
1 22 6 20 18 -4 23 -36 29 -44 9z"/>
<path d="M2794 1886 c-9 -23 3 -46 23 -46 15 0 16 2 3 10 -13 8 -12 10 3 10
12 0 17 6 15 17 -4 23 -36 29 -44 9z"/>
<path d="M2855 1881 c-8 -26 1 -41 23 -41 15 0 15 2 2 10 -13 8 -12 10 3 10
12 0 17 6 15 17 -5 26 -35 28 -43 4z m35 -1 c0 -5 -4 -10 -10 -10 -5 0 -10 5
-10 10 0 6 5 10 10 10 6 0 10 -4 10 -10z"/>
<path d="M3000 1885 c0 -9 8 -19 17 -22 15 -6 15 -7 -3 -14 -16 -6 -16 -8 -2
-8 24 -1 31 14 12 29 -12 11 -12 15 -2 21 10 7 9 9 -4 9 -10 0 -18 -7 -18 -15z"/>
<path d="M3051 1884 c0 -11 3 -14 6 -6 3 7 2 16 -1 19 -3 4 -6 -2 -5 -13z"/>
<path d="M3214 1886 c-9 -24 4 -48 23 -44 12 2 18 12 18 28 0 29 -32 41 -41
16z m36 -16 c0 -11 -7 -20 -15 -20 -15 0 -21 21 -8 33 12 13 23 7 23 -13z"/>
<path d="M3192 1865 c0 -16 2 -22 5 -12 2 9 2 23 0 30 -3 6 -5 -1 -5 -18z"/>
<path d="M2906 1791 c-4 -7 -5 -15 -2 -18 9 -9 19 4 14 18 -4 11 -6 11 -12 0z"/>
<path d="M3028 1783 c7 -3 16 -2 19 1 4 3 -2 6 -13 5 -11 0 -14 -3 -6 -6z"/>
<path d="M2886 1695 c-3 -8 -1 -15 4 -15 6 0 10 7 10 15 0 8 -2 15 -4 15 -2 0
-6 -7 -10 -15z"/>
<path d="M2966 1694 c-3 -9 -4 -19 -1 -22 3 -3 5 1 5 9 0 11 2 11 10 -1 5 -8
10 -10 10 -5 0 6 -4 16 -9 23 -6 11 -10 10 -15 -4z"/>
<path d="M2755 1629 c-3 -5 1 -21 9 -36 11 -20 15 -23 16 -10 0 9 5 17 11 17
6 0 9 7 7 17 -3 18 -35 27 -43 12z"/>
<path d="M2892 1607 c-7 -19 -15 -26 -23 -21 -7 4 -9 3 -6 -3 9 -14 -11 -30
-43 -36 l-25 -4 27 -2 c15 0 30 4 33 9 3 6 13 10 22 10 8 0 24 11 35 25 11 14
27 25 36 25 12 0 13 3 4 12 -22 22 -48 16 -60 -15z"/>
<path d="M2726 1578 c1 -29 2 -79 3 -111 l1 -57 106 3 c78 2 108 7 114 17 12
19 4 26 -13 12 -18 -15 -97 -3 -97 15 0 21 -52 10 -61 -13 -6 -16 -8 -14 -8 9
-1 30 -17 37 -24 10 -3 -10 -5 2 -5 27 2 84 -2 140 -9 140 -5 0 -7 -24 -7 -52z
m104 -138 c0 -5 -7 -10 -16 -10 -8 0 -12 5 -9 10 3 6 10 10 16 10 5 0 9 -4 9
-10z"/>
<path d="M2870 1620 c0 -5 5 -10 11 -10 5 0 7 5 4 10 -3 6 -8 10 -11 10 -2 0
-4 -4 -4 -10z"/>
<path d="M2800 1586 c0 -9 7 -12 20 -9 11 3 17 9 14 14 -8 14 -34 10 -34 -5z"/>
<path d="M2934 1583 c-7 -2 -10 -13 -7 -23 4 -14 0 -20 -10 -20 -9 0 -20 -8
-26 -17 -8 -14 -12 -15 -25 -4 -11 9 -16 10 -16 2 0 -11 1 -12 37 -16 16 -2
20 2 15 14 -5 14 -4 14 11 2 13 -10 16 -22 11 -50 -6 -34 -6 -35 12 -19 21 21
26 58 7 58 -17 0 -17 19 1 39 16 18 9 41 -10 34z"/>
<path d="M2764 1532 c-9 -13 -5 -21 15 -37 30 -23 36 -23 37 6 1 14 -2 17 -9
10 -6 -6 -16 -11 -21 -11 -7 0 -6 3 1 8 8 5 8 11 -1 24 -11 15 -13 15 -22 0z"/>
<path d="M2850 1492 c0 -5 9 -17 19 -26 14 -13 21 -14 27 -5 4 7 -1 18 -11 26
-21 15 -35 17 -35 5z"/>
<path d="M3240 1402 c0 -7 -6 -12 -14 -12 -8 0 -18 -4 -21 -10 -9 -15 8 -12
31 4 10 8 16 18 11 22 -4 4 -7 2 -7 -4z"/>
<path d="M2696 1364 c-9 -8 -16 -21 -16 -28 0 -17 21 -36 40 -36 12 1 12 2 -2
11 -25 14 -22 44 5 57 16 8 18 11 5 11 -9 1 -24 -6 -32 -15z"/>
<path d="M2774 1372 c-28 -19 -19 -72 13 -72 14 0 14 2 -3 15 -19 14 -19 14 1
15 17 0 18 2 5 10 -13 9 -12 12 4 25 14 11 16 15 5 15 -8 0 -19 -4 -25 -8z"/>
<path d="M3240 1345 c0 -8 4 -15 10 -15 5 0 7 7 4 15 -4 8 -8 15 -10 15 -2 0
-4 -7 -4 -15z"/>
<path d="M3140 1329 c0 -5 5 -7 10 -4 6 3 10 8 10 11 0 2 -4 4 -10 4 -5 0 -10
-5 -10 -11z"/>
<path d="M3255 1310 c-18 -20 -20 -20 -26 -3 -7 16 -8 15 -8 -4 -1 -14 -7 -23
-16 -23 -9 0 -15 -9 -15 -22 0 -14 3 -18 8 -12 5 9 11 8 20 -2 11 -12 10 -14
-5 -14 -14 0 -8 -10 22 -39 29 -28 44 -36 56 -30 9 4 19 5 23 2 3 -3 6 0 6 8
0 11 -9 15 -29 13 -34 -2 -46 16 -28 41 13 16 47 12 47 -6 0 -5 5 -9 10 -9 15
0 12 37 -5 53 -8 8 -11 18 -7 21 3 4 -1 4 -11 0 -20 -7 -22 6 -4 25 8 9 8 12
0 7 -6 -3 -13 -1 -15 5 -2 6 -12 1 -23 -11z"/>
<path d="M3286 1207 c3 -10 9 -15 12 -12 3 3 0 11 -7 18 -10 9 -11 8 -5 -6z"/>
<path d="M3340 1130 c0 -5 5 -10 11 -10 6 0 8 -7 5 -16 -5 -14 -4 -15 8 -4 13
10 13 14 1 26 -16 16 -25 18 -25 4z"/>
</g>
</svg>
